# Blender v3.1.2 OBJ File: ''
# www.blender.org
mtllib AtıkDeposu.mtl
o Cube.004_Cube.006
v -0.345146 1.572385 0.323238
v -0.345146 1.572385 -0.434066
v 0.345146 1.572385 -0.434066
v 0.345146 1.572385 0.323238
v -0.487722 1.702123 0.487722
v -0.487722 1.702123 -0.487722
v 0.487722 1.702123 -0.487722
v 0.487722 1.702123 0.487722
v -0.345146 2.039766 0.386906
v -0.345146 2.462045 -0.035374
v 0.345146 2.462045 -0.035374
v 0.345146 2.039766 0.386906
v 0.487722 1.938949 0.487722
v 0.487722 2.562861 -0.136190
v -0.487722 2.562861 -0.136190
v -0.487722 1.938949 0.487722
v 0.487722 1.938810 -0.487722
v -0.487722 1.938810 -0.487722
v -0.462209 -0.030068 -0.462209
v -0.462209 -0.030068 0.462209
v -0.462209 1.702123 -0.462209
v 0.462209 -0.030068 -0.462209
v 0.462209 1.702123 -0.462209
v 0.462209 -0.030068 0.462209
v 0.462209 1.702123 0.462209
v -0.462209 1.702123 0.462209
v -0.462209 1.634041 -0.462209
v 0.462209 1.634041 -0.462209
v 0.462209 1.634041 0.462209
v -0.462209 1.634041 0.462209
v -0.504287 -0.030068 -0.504287
v -0.504287 -0.030068 0.504287
v 0.504287 -0.030068 -0.504287
v 0.504287 -0.030068 0.504287
v -0.487722 2.562861 -0.363670
v -0.487722 2.438809 -0.487722
v -0.487722 2.526527 -0.451388
v 0.487722 2.438809 -0.487722
v 0.487722 2.562861 -0.363670
v 0.487722 2.526527 -0.451388
v -0.485552 1.634041 -0.485552
v -0.504287 1.615306 -0.504287
v 0.485552 1.634041 -0.485552
v 0.504287 1.615306 -0.504287
v 0.485552 1.634041 0.485552
v 0.504287 1.615306 0.504287
v -0.504287 1.615306 0.504287
v -0.485552 1.634041 0.485552
vt 0.564831 0.250000
vt 0.564845 0.000000
vt 0.625000 0.159905
vt 0.625000 0.218206
vt 0.621497 0.240688
vt 0.613039 0.250000
vt 0.542011 0.250000
vt 0.564831 0.500000
vt 0.542011 0.500000
vt 0.542011 0.000000
vt 0.375000 0.250000
vt 0.375000 0.500000
vt 0.375000 0.750000
vt 0.375000 1.000000
vt 0.564845 0.750000
vt 0.542011 0.750000
vt 0.542011 0.500000
vt 0.542011 0.250000
vt 0.542011 0.750000
vt 0.542011 0.000000
vt 0.564845 1.000000
vt 0.542011 1.000000
vt 0.615280 0.786541
vt 0.574565 0.786541
vt 0.625000 0.750000
vt 0.615280 0.963459
vt 0.625000 1.000000
vt 0.574565 0.963459
vt 0.625000 0.531794
vt 0.875000 0.531794
vt 0.875000 0.590095
vt 0.625000 0.590095
vt 0.613039 0.500000
vt 0.621497 0.509312
vt 0.529752 0.750000
vt 0.542011 1.000000
vt 0.529752 1.000000
vt 0.529752 0.500000
vt 0.529752 0.250000
vt 0.529752 0.000000
vt 0.375000 0.750000
vt 0.528010 0.750000
vt 0.528010 1.000000
vt 0.375000 1.000000
vt 0.375000 0.250000
vt 0.375000 0.500000
vt 0.529752 0.250000
vt 0.529752 0.000000
vt 0.529752 0.500000
vt 0.529752 0.750000
vt 0.529752 1.000000
vt 0.528010 0.500000
vt 0.375000 0.000000
vt 0.528010 0.000000
vt 0.528010 0.250000
vt 0.625000 0.500000
vt 0.875000 0.500000
vt 0.625000 0.250000
vt 0.574565 0.963459
vt 0.615280 0.963459
vt 0.615280 0.786541
vt 0.574565 0.786541
vn -1.0000 -0.0000 0.0000
vn 0.0000 0.0000 -1.0000
vn 0.0000 -1.0000 0.0000
vn 1.0000 0.0000 0.0000
vn 0.0000 0.0000 1.0000
vn 0.0000 0.7071 0.7071
vn 0.0000 1.0000 0.0000
vn 0.0000 0.9239 -0.3827
vn 0.0000 0.3827 -0.9239
vn -0.7071 0.7071 0.0000
vn 0.0000 0.7071 -0.7071
vn 0.7071 0.7071 0.0000
vn 0.0000 0.1350 -0.9908
vn 0.0000 -0.4090 0.9126
g Cube.004_Cube.006_Material.013
usemtl Material.013
s off
f 18/1/1 16/2/1 15/3/1 35/4/1 37/5/1 36/6/1
f 6/7/2 18/1/2 17/8/2 7/9/2
f 5/10/1 16/2/1 18/1/1 6/7/1
f 19/11/3 22/12/3 24/13/3 20/14/3
f 7/9/4 17/8/4 13/15/4 8/16/4
f 6/7/3 7/9/3 23/17/3 21/18/3
f 7/9/3 8/16/3 25/19/3 23/17/3
f 5/10/3 6/7/3 21/18/3 26/20/3
f 8/16/5 13/15/5 16/21/5 5/22/5
f 11/23/6 12/24/6 13/15/6 14/25/6
f 10/26/6 11/23/6 14/25/6 15/27/6
f 9/28/6 10/26/6 15/27/6 16/21/6
f 12/24/6 9/28/6 16/21/6 13/15/6
f 39/29/7 35/30/7 15/31/7 14/32/7
f 13/15/4 17/8/4 38/33/4 40/34/4 39/29/4 14/32/4
f 29/35/5 25/19/5 26/36/5 30/37/5
f 28/38/4 23/17/4 25/19/4 29/35/4
f 27/39/2 21/18/2 23/17/2 28/38/2
f 30/40/1 26/20/1 21/18/1 27/39/1
f 8/16/3 5/22/3 26/36/3 25/19/3
f 34/41/5 46/42/5 47/43/5 32/44/5
f 22/12/3 19/11/3 31/45/3 33/46/3
f 24/13/3 22/12/3 33/46/3 34/41/3
f 20/14/3 24/13/3 34/41/3 32/44/3
f 30/40/7 27/39/7 41/47/7 48/48/7
f 27/39/7 28/38/7 43/49/7 41/47/7
f 28/38/7 29/35/7 45/50/7 43/49/7
f 29/35/7 30/37/7 48/51/7 45/50/7
f 19/11/3 20/14/3 32/44/3 31/45/3
f 33/46/4 44/52/4 46/42/4 34/41/4
f 32/53/1 47/54/1 42/55/1 31/45/1
f 35/30/8 39/29/8 40/56/8 37/57/8
f 37/58/9 40/56/9 38/33/9 36/6/9
f 17/8/2 18/1/2 36/6/2 38/33/2
f 48/48/10 41/47/10 42/55/10 47/54/10
f 41/47/11 43/49/11 44/52/11 42/55/11
f 43/49/12 45/50/12 46/42/12 44/52/12
f 45/50/6 48/51/6 47/43/6 46/42/6
f 31/45/2 42/55/2 44/52/2 33/46/2
g Cube.004_Cube.006_Material.014
usemtl Material.014
f 10/26/4 9/28/4 1/59/4 2/60/4
f 3/61/7 2/60/7 1/59/7 4/62/7
f 12/24/1 11/23/1 3/61/1 4/62/1
f 9/28/13 12/24/13 4/62/13 1/59/13
f 11/23/14 10/26/14 2/60/14 3/61/14
