# Blender v3.1.2 OBJ File: ''
# www.blender.org
mtllib Canta.mtl
o Cube.002_Cube.004
v -0.342960 -1.000000 1.000000
v -0.215106 1.000000 0.839637
v -0.342960 -1.000000 -1.000000
v -0.215106 1.000000 -0.839637
v 0.342960 -1.000000 1.000000
v 0.215106 1.000000 0.839637
v 0.342960 -1.000000 -1.000000
v 0.215106 1.000000 -0.839637
v 0.000000 -1.000000 -0.866530
v 0.000000 1.000000 -0.724903
v 0.000000 -1.000000 0.866530
v 0.000000 1.000000 0.724903
v -0.250234 1.000000 1.000000
v -0.250234 1.000000 -1.000000
v 0.000000 1.000000 -0.866530
v 0.250234 1.000000 -1.000000
v 0.250234 1.000000 1.000000
v 0.000000 1.000000 0.866530
v 0.000000 -0.316925 -0.724903
v 0.000000 -0.316925 0.724903
v -0.215106 -0.316925 0.839637
v -0.215106 -0.316925 -0.839637
v 0.215106 -0.316925 -0.839637
v 0.215106 -0.316925 0.839637
v -0.342960 -1.000000 -0.333333
v -0.342960 -1.000000 0.333333
v -0.250234 1.041368 0.195894
v -0.250234 1.041368 -0.195894
v 0.342960 -1.000000 0.333333
v 0.342960 -1.000000 -0.333333
v 0.000000 -1.000000 -0.288843
v 0.000000 -1.000000 0.288843
v -0.215106 1.041368 0.195894
v 0.000000 -0.316925 -0.241634
v 0.000000 -0.316925 0.241634
v -0.215106 -0.316925 0.279879
v -0.215106 -0.316925 -0.279879
v 0.215106 -0.316925 -0.279879
v 0.215106 -0.316925 0.279879
v -0.250234 1.404034 0.195894
v -0.215106 1.404034 0.195894
v 0.215106 1.404034 0.195894
v -0.250234 1.000000 0.306606
v -0.250234 1.000000 -0.306606
v 0.250234 1.000000 -0.306606
v 0.250234 1.000000 0.306606
v -0.215106 1.000000 0.306606
v -0.215106 1.000000 -0.306606
v 0.215106 1.000000 -0.306606
v 0.215106 1.000000 0.306606
v -0.250179 1.441181 0.306606
v -0.250179 1.441181 -0.306606
v 0.258400 1.441181 -0.306606
v 0.258400 1.441181 0.306606
v -0.215161 1.441181 0.306606
v -0.215161 1.441181 -0.306606
v 0.206941 1.441181 -0.306606
v 0.206941 1.441181 0.306606
v 0.250234 1.041368 -0.195694
v 0.250234 1.041368 0.195894
v -0.215106 1.041368 -0.195894
v 0.215106 1.041368 -0.195694
v 0.215106 1.041368 0.195894
v -0.250234 1.404034 -0.195894
v 0.250234 1.404034 -0.202338
v 0.250234 1.404034 0.195894
v -0.215106 1.404034 -0.195894
v 0.215106 1.404034 -0.189051
v -0.270952 1.538770 0.000000
v -0.194388 1.538770 0.000000
v -0.250234 1.404034 0.000000
v -0.215106 1.404034 0.000000
v 0.281106 1.538770 0.000000
v 0.184235 1.538770 0.000000
v 0.250234 1.404034 -0.003222
v 0.215106 1.404034 0.003421
vt 0.375000 0.166667
vt 0.625000 0.166667
vt 0.625000 0.250000
vt 0.375000 0.250000
vt 0.375000 0.375000
vt 0.625000 0.375000
vt 0.625000 0.500000
vt 0.375000 0.500000
vt 0.375000 0.666667
vt 0.625000 0.666667
vt 0.625000 0.750000
vt 0.375000 0.750000
vt 0.375000 0.875000
vt 0.625000 0.875000
vt 0.625000 1.000000
vt 0.375000 1.000000
vt 0.250000 0.666667
vt 0.250000 0.750000
vt 0.750000 0.520430
vt 0.857452 0.518313
vt 0.857452 0.518313
vt 0.750000 0.520430
vt 0.642548 0.518313
vt 0.642548 0.518313
vt 0.125000 0.666667
vt 0.125000 0.750000
vt 0.857452 0.589438
vt 0.875000 0.500000
vt 0.875000 0.583333
vt 0.750000 0.500000
vt 0.642548 0.660562
vt 0.642548 0.731686
vt 0.750000 0.729570
vt 0.857452 0.731687
vt 0.875000 0.750000
vt 0.750000 0.750000
vt 0.750000 0.659857
vt 0.857452 0.660562
vt 0.857452 0.731687
vt 0.750000 0.729570
vt 0.642548 0.660562
vt 0.642548 0.731686
vt 0.642548 0.589438
vt 0.642548 0.589438
vt 0.857452 0.660562
vt 0.857452 0.589438
vt 0.750000 0.590143
vt 0.625000 0.583333
vt 0.875000 0.666667
vt 0.125000 0.500000
vt 0.250000 0.500000
vt 0.250000 0.583333
vt 0.125000 0.583333
vt 0.375000 0.583333
vt 0.375000 0.000000
vt 0.625000 0.000000
vt 0.625000 0.083333
vt 0.375000 0.083333
vt 0.642548 0.589438
vt 0.625000 0.583333
vt 0.857452 0.660562
vt 0.875000 0.666667
vt 0.642548 0.625000
vt 0.642548 0.660562
vt 0.625000 0.666667
vt 0.625000 0.625000
vt 0.857452 0.625000
vt 0.857452 0.589438
vt 0.875000 0.583333
vt 0.875000 0.625000
vt 0.625000 0.098379
vt 0.625000 0.151621
vt 0.625000 0.597958
vt 0.625000 0.652056
vt 0.857452 0.602279
vt 0.857452 0.647721
vt 0.642548 0.647318
vt 0.642548 0.602694
vt 0.625000 0.125000
vt 0.625000 0.098379
vt 0.625000 0.083333
vt 0.625000 0.125000
vt 0.625000 0.625007
vt 0.625000 0.598195
vt 0.857452 0.625000
vt 0.857452 0.602279
vt 0.642548 0.625006
vt 0.642548 0.647542
vt 0.857452 0.647721
vt 0.642547 0.602470
vt 0.625000 0.151621
vt 0.625000 0.166667
vt 0.625000 0.651818
vn -0.9989 0.0463 0.0000
vn -0.4103 -0.0095 -0.9119
vn 0.9989 0.0463 0.0000
vn 0.4103 -0.0095 0.9119
vn 0.0000 -1.0000 0.0000
vn -0.4706 0.0000 0.8823
vn 0.4706 0.0000 0.8823
vn -0.4103 -0.0095 0.9119
vn 0.4103 -0.0095 -0.9119
vn 0.0000 1.0000 0.0000
vn -1.0000 0.0000 0.0000
vn 1.0000 0.0000 0.0000
vn 0.4706 0.0000 -0.8823
vn -0.4706 0.0000 -0.8823
vn 0.0000 0.0000 -1.0000
vn 0.0000 0.0000 1.0000
vn 0.0000 0.9529 0.3033
vn 0.0000 0.9529 -0.3033
vn -0.9915 -0.1294 0.0159
vn 0.9750 -0.2220 -0.0009
vn 0.9915 -0.1294 -0.0159
vn -0.9750 -0.2220 0.0009
vn 1.0000 0.0001 0.0003
vn -1.0000 0.0001 0.0003
vn -0.9993 -0.0104 0.0359
vn 0.9992 -0.0098 0.0381
vn -0.9993 -0.0102 -0.0370
vn 1.0000 0.0001 -0.0003
vn -1.0000 0.0001 -0.0003
vn 0.9993 -0.0102 -0.0370
vn 0.1858 0.0000 0.9826
vn 0.9915 -0.1294 0.0159
vn -0.9915 -0.1294 -0.0159
vn -0.9750 -0.2221 -0.0009
vn 0.9750 -0.2221 0.0009
g Cube.002_Cube.004_Material.011
usemtl Material.011
s off
f 25/1/1 44/2/1 14/3/1 3/4/1
f 9/5/2 15/6/2 16/7/2 7/8/2
f 29/9/3 46/10/3 17/11/3 5/12/3
f 11/13/4 18/14/4 13/15/4 1/16/4
f 32/17/5 29/9/5 5/12/5 11/18/5
f 10/19/6 4/20/6 22/21/6 19/22/6
f 8/23/7 10/19/7 19/22/7 23/24/7
f 26/25/5 32/17/5 11/18/5 1/26/5
f 5/12/8 17/11/8 18/14/8 11/13/8
f 3/4/9 14/3/9 15/6/9 9/5/9
f 48/27/10 4/20/10 14/28/10 44/29/10
f 10/19/10 8/23/10 16/7/10 15/30/10
f 50/31/10 6/32/10 17/11/10 46/10/10
f 12/33/10 2/34/10 13/35/10 18/36/10
f 4/20/10 10/19/10 15/30/10 14/28/10
f 6/32/10 12/33/10 18/36/10 17/11/10
f 35/37/10 36/38/10 21/39/10 20/40/10
f 39/41/10 35/37/10 20/40/10 24/42/10
f 49/43/11 8/23/11 23/24/11 38/44/11
f 47/45/12 2/34/12 21/39/12 36/38/12
f 12/33/13 6/32/13 24/42/13 20/40/13
f 2/34/14 12/33/14 20/40/14 21/39/14
f 4/20/12 48/27/12 37/46/12 22/21/12
f 48/27/12 47/45/12 36/38/12 37/46/12
f 6/32/11 50/31/11 39/41/11 24/42/11
f 50/31/11 49/43/11 38/44/11 39/41/11
f 23/24/10 19/22/10 34/47/10 38/44/10
f 38/44/10 34/47/10 35/37/10 39/41/10
f 19/22/10 22/21/10 37/46/10 34/47/10
f 34/47/10 37/46/10 36/38/10 35/37/10
f 8/23/10 49/43/10 45/48/10 16/7/10
f 2/34/10 47/45/10 43/49/10 13/35/10
f 3/50/5 9/51/5 31/52/5 25/53/5
f 25/53/5 31/52/5 32/17/5 26/25/5
f 9/51/5 7/8/5 30/54/5 31/52/5
f 31/52/5 30/54/5 29/9/5 32/17/5
f 7/8/3 16/7/3 45/48/3 30/54/3
f 30/54/3 45/48/3 46/10/3 29/9/3
f 1/55/1 13/56/1 43/57/1 26/58/1
f 26/58/1 43/57/1 44/2/1 25/1/1
g Cube.002_Cube.004_Material.012
usemtl Material.012
f 45/48/15 49/43/15 57/59/15 53/60/15
f 43/49/16 47/45/16 55/61/16 51/62/16
f 74/63/17 58/64/17 54/65/17 73/66/17
f 70/67/18 56/68/18 52/69/18 69/70/18
f 48/27/15 44/29/15 52/69/15 56/68/15
f 50/31/16 46/10/16 54/65/16 58/64/16
f 27/71/11 28/72/11 44/2/11 43/57/11
f 59/73/12 60/74/12 46/10/12 45/48/12
f 61/75/12 33/76/12 47/45/12 48/27/12
f 63/77/11 62/78/11 49/43/11 50/31/11
f 71/79/19 40/80/19 51/81/19 69/82/19
f 75/83/20 65/84/20 53/60/20 73/66/20
f 72/85/21 67/86/21 56/68/21 70/67/21
f 76/87/22 42/88/22 58/64/22 74/63/22
f 33/76/23 41/89/23 55/61/23 47/45/23
f 40/80/24 27/71/24 43/57/24 51/81/24
f 62/78/25 68/90/25 57/59/25 49/43/25
f 65/84/26 59/73/26 45/48/26 53/60/26
f 42/88/27 63/77/27 50/31/27 58/64/27
f 67/86/28 61/75/28 48/27/28 56/68/28
f 28/72/29 64/91/29 52/92/29 44/2/29
f 60/74/30 66/93/30 54/65/30 46/10/30
f 28/72/10 27/71/10 33/76/10 61/75/10
f 33/76/15 27/71/15 40/80/15 41/89/15
f 71/79/5 72/85/5 41/89/5 40/80/5
f 67/86/16 64/91/16 28/72/16 61/75/16
f 75/83/5 76/87/5 68/90/5 65/84/5
f 66/93/15 60/74/15 63/77/15 42/88/15
f 62/78/31 59/73/31 65/84/31 68/90/31
f 64/91/5 67/86/5 72/85/5 71/79/5
f 41/89/32 72/85/32 70/67/32 55/61/32
f 64/91/33 71/79/33 69/82/33 52/92/33
f 55/61/17 70/67/17 69/70/17 51/62/17
f 66/93/5 42/88/5 76/87/5 75/83/5
f 68/90/34 76/87/34 74/63/34 57/59/34
f 66/93/35 75/83/35 73/66/35 54/65/35
f 57/59/18 74/63/18 73/66/18 53/60/18
