# Blender v3.1.2 OBJ File: ''
# www.blender.org
mtllib SaklamaKabi.mtl
o Cube.001_Cube.003
v -0.674371 -0.279970 0.674371
v -0.674371 -0.279970 -0.674371
v 0.674371 -0.279970 0.674371
v 0.674371 -0.279970 -0.674371
v -0.674371 0.489927 0.674371
v -0.674371 0.489927 -0.674371
v 0.674371 0.489927 -0.674371
v 0.674371 0.489927 0.674371
v -0.720505 0.483618 0.720505
v -0.720505 0.680680 0.720505
v -0.720505 0.680680 -0.720505
v 0.720505 0.680680 -0.720505
v 0.720505 0.680680 0.720505
v -0.720505 0.483618 -0.720505
v 0.720505 0.483618 -0.720505
v 0.720505 0.483618 0.720505
v -0.674371 0.416334 -0.674371
v 0.674371 0.416334 -0.674371
v 0.674371 0.416334 0.674371
v -0.674371 0.416334 0.674371
v -0.674371 0.315258 -0.674371
v 0.674371 0.315258 -0.674371
v 0.674371 0.315258 0.674371
v -0.674371 0.315258 0.674371
v -0.157793 -0.279970 -0.674371
v -0.157793 -0.279970 0.674371
v -0.157793 0.489927 0.674371
v -0.157793 0.489927 -0.674371
v -0.168588 0.680680 -0.720505
v -0.168588 0.680680 0.720505
v -0.168588 0.483618 0.720505
v -0.168588 0.483618 -0.720505
v -0.157793 0.416334 -0.674371
v -0.157793 0.416334 0.674371
v -0.157793 0.315258 0.674371
v -0.157793 0.315258 -0.674371
v 0.125142 -0.279970 0.674371
v 0.125142 0.489927 -0.674371
v 0.133704 0.680680 -0.720505
v 0.133704 0.483618 -0.720505
v 0.125142 0.416334 -0.674371
v 0.125142 0.315258 -0.674371
v 0.125143 -0.279970 -0.674371
v 0.125143 0.489927 0.674371
v 0.133704 0.680680 0.720505
v 0.133704 0.483618 0.720505
v 0.125143 0.416334 0.674371
v 0.125143 0.315258 0.674371
v 0.125143 0.416334 0.634843
v -0.157793 0.416334 0.634843
v 0.125143 0.315258 0.634843
v -0.157793 0.315258 0.634843
v -0.157793 0.416334 -0.634843
v -0.157793 0.315258 -0.634843
v 0.125142 0.416334 -0.634843
v 0.125142 0.315258 -0.634843
vt 0.590812 0.851804
vt 0.590812 0.750000
vt 0.590812 0.750000
vt 0.590812 0.851804
vt 0.590812 0.345752
vt 0.590812 0.250000
vt 0.590812 0.250000
vt 0.590812 0.345752
vt 0.590812 0.500000
vt 0.590812 0.500000
vt 0.273196 0.500000
vt 0.375000 0.500000
vt 0.375000 0.750000
vt 0.273196 0.750000
vt 0.590812 0.000000
vt 0.590812 0.000000
vt 0.570183 0.904248
vt 0.590812 0.904248
vt 0.590812 1.000000
vt 0.570183 1.000000
vt 0.570183 0.500000
vt 0.570183 0.750000
vt 0.570183 0.398196
vt 0.590812 0.398196
vt 0.570183 0.000000
vt 0.570183 0.250000
vt 0.625000 0.000000
vt 0.625000 0.250000
vt 0.590812 0.398196
vt 0.625000 0.398196
vt 0.625000 0.500000
vt 0.625000 0.750000
vt 0.590812 0.904248
vt 0.625000 0.904248
vt 0.625000 1.000000
vt 0.590812 1.000000
vt 0.779248 0.500000
vt 0.875000 0.500000
vt 0.875000 0.750000
vt 0.779248 0.750000
vt 0.541850 0.000000
vt 0.541850 0.250000
vt 0.541850 0.398196
vt 0.541850 0.500000
vt 0.541850 0.750000
vt 0.541850 0.904248
vt 0.541850 1.000000
vt 0.375000 0.904248
vt 0.375000 1.000000
vt 0.375000 0.398196
vt 0.375000 0.000000
vt 0.375000 0.250000
vt 0.541850 0.345752
vt 0.375000 0.345752
vt 0.375000 0.851804
vt 0.541850 0.851804
vt 0.541850 0.398196
vt 0.570183 0.398196
vt 0.570183 0.345752
vt 0.726804 0.500000
vt 0.726804 0.750000
vt 0.625000 0.851804
vt 0.625000 0.345752
vt 0.570183 0.851804
vt 0.125000 0.500000
vt 0.220752 0.500000
vt 0.220752 0.750000
vt 0.125000 0.750000
vt 0.541850 0.904248
vt 0.570183 0.904248
vt 0.541850 0.851804
vt 0.570183 0.345752
vt 0.541850 0.345752
vt 0.570183 0.851804
vn 0.0000 -0.9908 -0.1355
vn 0.0000 -0.9908 0.1355
vn -0.1355 -0.9908 0.0000
vn 0.0000 -1.0000 0.0000
vn 0.1355 -0.9908 0.0000
vn 0.0000 0.0000 1.0000
vn 1.0000 0.0000 0.0000
vn 0.0000 0.0000 -1.0000
vn -1.0000 0.0000 0.0000
vn 0.0000 1.0000 0.0000
g Cube.001_Cube.003_Material.009
usemtl Material.009
s off
f 44/1/1 8/2/1 16/3/1 46/4/1
f 28/5/2 6/6/2 14/7/2 32/8/2
f 8/2/3 7/9/3 15/10/3 16/3/3
f 43/11/4 4/12/4 3/13/4 37/14/4
f 6/6/5 5/15/5 9/16/5 14/7/5
f 34/17/6 27/18/6 5/19/6 20/20/6
f 18/21/7 7/9/7 8/2/7 19/22/7
f 41/23/8 38/24/8 7/9/8 18/21/8
f 20/25/9 5/15/9 6/6/9 17/26/9
f 9/16/9 10/27/9 11/28/9 14/7/9
f 40/29/8 39/30/8 12/31/8 15/10/8
f 15/10/7 12/31/7 13/32/7 16/3/7
f 31/33/6 30/34/6 10/35/6 9/36/6
f 29/37/10 11/38/10 10/39/10 30/40/10
f 24/41/9 20/25/9 17/26/9 21/42/9
f 42/43/8 41/23/8 18/21/8 22/44/8
f 22/44/7 18/21/7 19/22/7 23/45/7
f 35/46/6 34/17/6 20/20/6 24/47/6
f 26/48/6 35/46/6 24/47/6 1/49/6
f 4/12/7 22/44/7 23/45/7 3/13/7
f 43/50/8 42/43/8 22/44/8 4/12/8
f 1/51/9 24/41/9 21/42/9 2/52/9
f 2/52/8 21/42/8 36/53/8 25/54/8
f 37/55/6 48/56/6 35/46/6 26/48/6
f 41/23/9 42/43/9 56/57/9 55/58/9
f 21/42/8 17/26/8 33/59/8 36/53/8
f 39/60/10 29/37/10 30/40/10 45/61/10
f 46/4/6 45/62/6 30/34/6 31/33/6
f 14/7/8 11/28/8 29/63/8 32/8/8
f 17/26/8 6/6/8 28/5/8 33/59/8
f 47/64/6 44/1/6 27/18/6 34/17/6
f 2/65/4 25/66/4 26/67/4 1/68/4
f 38/24/2 28/5/2 32/8/2 40/29/2
f 5/19/1 27/18/1 31/33/1 9/36/1
f 7/9/2 38/24/2 40/29/2 15/10/2
f 19/22/6 8/2/6 44/1/6 47/64/6
f 16/3/6 13/32/6 45/62/6 46/4/6
f 12/31/10 39/60/10 45/61/10 13/32/10
f 23/45/6 19/22/6 47/64/6 48/56/6
f 3/13/6 23/45/6 48/56/6 37/55/6
f 25/54/8 36/53/8 42/43/8 43/50/8
f 34/17/7 35/46/7 52/69/7 50/70/7
f 32/8/8 29/63/8 39/30/8 40/29/8
f 33/59/8 28/5/8 38/24/8 41/23/8
f 25/66/4 43/11/4 37/14/4 26/67/4
f 27/18/1 44/1/1 46/4/1 31/33/1
f 35/46/10 48/56/10 51/71/10 52/69/10
f 33/59/4 41/23/4 55/58/4 53/72/4
f 36/53/7 33/59/7 53/72/7 54/73/7
f 47/64/4 34/17/4 50/70/4 49/74/4
f 48/56/9 47/64/9 49/74/9 51/71/9
f 42/43/10 36/53/10 54/73/10 56/57/10
g Cube.001_Cube.003_Material.010
usemtl Material.010
f 51/71/6 49/74/6 50/70/6 52/69/6
f 54/73/8 53/72/8 55/58/8 56/57/8
